<svg width="61" height="44" viewBox="0 0 61 44" fill="none" xmlns="http://www.w3.org/2000/svg">
<mask id="path-1-inside-1_1_89" fill="white">
<path d="M0 10C0 4.47715 4.47715 0 10 0H51C56.5229 0 61 4.47715 61 10V34C61 39.5228 56.5228 44 51 44H10C4.47715 44 0 39.5228 0 34V10Z"/>
</mask>
<path d="M0 0H61H0ZM61 34C61 41.732 54.732 48 47 48H14C6.26801 48 0 41.732 0 34C0 37.3137 4.47715 40 10 40H51C56.5228 40 61 37.3137 61 34ZM0 44V0V44ZM61 0V44V0Z" fill="white" mask="url(#path-1-inside-1_1_89)"/>
<path d="M23.1733 28H20.5369L24.554 16.3636H27.7244L31.7358 28H29.0994L26.1847 19.0227H26.0938L23.1733 28ZM23.0085 23.4261H29.2358V25.3466H23.0085V23.4261ZM35.5114 16.3636V28H33.0909V16.3636H35.5114ZM39.8707 16.3636V28H37.4503V16.3636H39.8707Z" fill="white"/>
</svg>
