<svg width="95" height="50" viewBox="0 0 95 50" fill="none" xmlns="http://www.w3.org/2000/svg">
<path d="M0 0H94.1177V27.2782L89.459 34.5571L94.1177 41.0354V50H0V22.6924L2.91161 19.344L0 16.1412V0Z" fill="#016FD0"/>
<path d="M18.2703 42.0549V27.2784H33.9157L35.5944 29.4667L37.3286 27.2784H94.1177V41.0359C94.1177 41.0359 92.6326 42.0401 90.9149 42.055H59.4696L57.577 39.7256V42.055H51.3753V38.0788C51.3753 38.0788 50.5281 38.6338 48.6966 38.6338H46.5857V42.055H37.1958L35.5195 39.8198L33.8176 42.055L18.2703 42.0549ZM0 16.1416L3.5281 7.91626H9.62965L11.6318 12.5237V7.91626H19.2166L20.4085 11.2464L21.564 7.91626H55.6117V9.59044C55.6117 9.59044 57.4016 7.91626 60.3431 7.91626L71.3903 7.95494L73.3579 12.502V7.91626H79.7052L81.4521 10.5282V7.91626H87.8577V22.6927H81.4521L79.778 20.0722V22.6926H70.4524L69.5145 20.3634H67.0076L66.085 22.6926H59.7607C57.2296 22.6926 55.6117 21.0527 55.6117 21.0527V22.6926H46.0761L44.1836 20.3634V22.6927H8.72576L7.78856 20.3634H5.28937L4.35906 22.6926H0V16.1416Z" fill="white"/>
<path d="M4.77817 9.73822L0.0195312 20.8023H3.11767L3.99571 18.5867H9.10015L9.97356 20.8023H13.14L8.38572 9.73822H4.77817ZM6.53878 12.3131L8.09464 16.1847H4.97838L6.53878 12.3131ZM13.4675 20.8004V9.73633L17.8701 9.75265L20.4308 16.8861L22.9302 9.73633H27.2976V20.8004H24.5316V12.6479L21.5995 20.8004H19.1737L16.2335 12.6479V20.8004H13.4675ZM29.1901 20.8004V9.73633H38.2161V12.2112H31.9853V14.1037H38.0705V16.4331H31.9853V18.3984H38.2161V20.8004H29.1901ZM39.8176 9.73822V20.8023H42.5836V16.8716H43.7482L47.0646 20.8023H50.4449L46.8053 16.726C48.299 16.6 49.8398 15.318 49.8398 13.3276C49.8398 10.9994 48.0124 9.73822 45.9729 9.73822H39.8176ZM42.5836 12.2131H45.7453C46.5039 12.2131 47.0556 12.8064 47.0556 13.3777C47.0556 14.1127 46.3407 14.5423 45.7863 14.5423H42.5836V12.2131ZM53.7932 20.8004H50.969V9.73633H53.7932V20.8004ZM60.4899 20.8004H59.8804C56.9307 20.8004 55.1398 18.4765 55.1398 15.3138C55.1398 12.073 56.9106 9.73633 60.6354 9.73633H63.6926V12.3568H60.5237C59.0117 12.3568 57.9423 13.5368 57.9423 15.3411C57.9423 17.4838 59.1651 18.3838 60.9266 18.3838H61.6545L60.4899 20.8004ZM66.5088 9.73822L61.7501 20.8023H64.8483L65.7262 18.5867H70.8306L71.7042 20.8023H74.8705L70.1164 9.73822H66.5088ZM68.2694 12.3131L69.8252 16.1847H66.7089L68.2694 12.3131ZM75.1935 20.8004V9.73633H78.7102L83.2004 16.6878V9.73633H85.9665V20.8004H82.5635L77.9595 13.667V20.8004H75.1935ZM20.1642 40.1626V29.0985H29.1901V31.5733H22.9593V33.4659H29.0445V35.7952H22.9593V37.7605H29.1901V40.1626H20.1642ZM64.3915 40.1626V29.0985H73.4174V31.5733H67.1866V33.4659H73.2428V35.7952H67.1865V37.7605H73.4173V40.1626H64.3915ZM29.5405 40.1626L33.9352 34.6988L29.4358 29.0985H32.9207L35.6003 32.5605L38.289 29.0985H41.6374L37.1972 34.6305L41.5999 40.1626H38.1157L35.5139 36.7551L32.9753 40.1626H29.5405ZM41.9285 29.1004V40.1644H44.7673V36.6706H47.6789C50.1425 36.6706 52.0099 35.3635 52.0099 32.8218C52.0099 30.7161 50.5453 29.1004 48.0382 29.1004H41.9285ZM44.7673 31.6026H47.8335C48.6294 31.6026 49.1983 32.0904 49.1983 32.8763C49.1983 33.6147 48.6323 34.1502 47.8244 34.1502H44.7673V31.6026ZM53.2109 29.0985V40.1626H55.9769V36.2319H57.1416L60.4581 40.1626H63.8382L60.1988 36.0864C61.6924 35.9603 63.2331 34.6783 63.2331 32.6879C63.2331 30.3597 61.4057 29.0985 59.3662 29.0985H53.2109ZM55.9769 31.5733H59.1387C59.8972 31.5733 60.449 32.1666 60.449 32.738C60.449 33.473 59.7341 33.9026 59.1797 33.9026H55.9769V31.5733ZM74.6985 40.1626V37.7605H80.2342C81.0533 37.7605 81.408 37.3178 81.408 36.8324C81.408 36.3673 81.0544 35.8971 80.2342 35.8971H77.7327C75.5583 35.8971 74.3473 34.5724 74.3473 32.5834C74.3473 30.8093 75.4563 29.0985 78.6875 29.0985H84.0739L82.9093 31.5879H78.2507C77.3602 31.5879 77.0861 32.0552 77.0861 32.5015C77.0861 32.96 77.4248 33.4659 78.1051 33.4659H80.7255C83.1494 33.4659 84.2013 34.8408 84.2013 36.6413C84.2013 38.5772 83.0292 40.1626 80.5936 40.1626H74.6985ZM84.8505 40.1626V37.7605H90.3861C91.2053 37.7605 91.5599 37.3178 91.5599 36.8324C91.5599 36.3673 91.2064 35.8971 90.3861 35.8971H87.8847C85.7102 35.8971 84.4993 34.5724 84.4993 32.5834C84.4993 30.8093 85.6082 29.0985 88.8394 29.0985H94.2259L93.0612 31.5879H88.4027C87.5122 31.5879 87.238 32.0552 87.238 32.5015C87.238 32.96 87.5767 33.4659 88.2571 33.4659H90.8775C93.3014 33.4659 94.3532 34.8408 94.3532 36.6413C94.3532 38.5772 93.1812 40.1626 90.7456 40.1626H84.8505Z" fill="#016FD0"/>
</svg>
