<svg width="115" height="37" viewBox="0 0 115 37" fill="none" xmlns="http://www.w3.org/2000/svg">
<path fill-rule="evenodd" clip-rule="evenodd" d="M28.7339 36.3943H18.7873L11.3287 7.93899C10.9746 6.63004 10.223 5.47286 9.11725 4.92747C6.35782 3.55687 3.31713 2.46608 0 1.91595V0.820419H16.0231C18.2345 0.820419 19.8931 2.46608 20.1695 4.37733L24.0395 24.9031L33.9811 0.820419H43.6512L28.7339 36.3943ZM49.1798 36.3943H39.7861L47.5212 0.820419H56.9149L49.1798 36.3943ZM69.068 10.6755C69.3445 8.75949 71.003 7.66396 72.938 7.66396C75.9787 7.38889 79.291 7.93903 82.0553 9.30488L83.7138 1.64566C80.9495 0.550136 77.9088 0 75.1494 0C66.0322 0 59.3979 4.92751 59.3979 11.7663C59.3979 16.9688 64.0972 19.7006 67.4143 21.3462C71.003 22.9871 72.3851 24.0827 72.1087 25.7236C72.1087 28.185 69.3445 29.2805 66.585 29.2805C63.2679 29.2805 59.9508 28.46 56.9149 27.0894L55.2564 34.7534C58.5735 36.1193 62.1622 36.6694 65.4793 36.6694C75.7023 36.9397 82.0553 32.017 82.0553 24.6281C82.0553 15.3232 69.068 14.7778 69.068 10.6755ZM114.931 36.3943L107.472 0.820419H99.4604C97.8019 0.820419 96.1433 1.91595 95.5905 3.55687L81.7788 36.3943H91.4489L93.379 31.1964H105.261L106.366 36.3943H114.931ZM100.843 10.4003L103.602 23.8075H95.8669L100.843 10.4003Z" fill="#172B85"/>
</svg>
